<mxfile host="app.diagrams.net" modified="2021-02-05T23:21:47.118Z" agent="5.0 (Macintosh; Intel Mac OS X 10_15_6) AppleWebKit/605.1.15 (KHTML, like Gecko) Version/14.0.2 Safari/605.1.15" etag="yZh1Z2jxQTGCAzupXEKc" version="14.2.9" type="github" pages="2">
  <diagram id="ZBumNyMTe2__z3s6jIOB" name="Page-1">
    <mxGraphModel dx="946" dy="553" grid="1" gridSize="10" guides="1" tooltips="1" connect="1" arrows="1" fold="1" page="1" pageScale="1" pageWidth="850" pageHeight="1100" math="0" shadow="0">
      <root>
        <mxCell id="0" />
        <mxCell id="1" parent="0" />
        <mxCell id="dQjJ2E0FZgbw87xnPa_4-2" value="user1 - desktop" style="shape=umlActor;verticalLabelPosition=bottom;verticalAlign=top;html=1;outlineConnect=0;" vertex="1" parent="1">
          <mxGeometry x="80" y="140" width="30" height="60" as="geometry" />
        </mxCell>
        <mxCell id="dQjJ2E0FZgbw87xnPa_4-3" value="user2 - mobile" style="shape=umlActor;verticalLabelPosition=bottom;verticalAlign=top;html=1;outlineConnect=0;" vertex="1" parent="1">
          <mxGeometry x="80" y="240" width="30" height="60" as="geometry" />
        </mxCell>
        <mxCell id="dQjJ2E0FZgbw87xnPa_4-4" value="App" style="rounded=0;whiteSpace=wrap;html=1;" vertex="1" parent="1">
          <mxGeometry x="210" y="160" width="90" height="80" as="geometry" />
        </mxCell>
        <mxCell id="dQjJ2E0FZgbw87xnPa_4-12" value="" style="endArrow=classic;html=1;" edge="1" parent="1">
          <mxGeometry width="50" height="50" relative="1" as="geometry">
            <mxPoint x="140" y="290" as="sourcePoint" />
            <mxPoint x="190" y="240" as="targetPoint" />
            <Array as="points" />
          </mxGeometry>
        </mxCell>
        <mxCell id="dQjJ2E0FZgbw87xnPa_4-13" value="" style="endArrow=classic;html=1;" edge="1" parent="1">
          <mxGeometry width="50" height="50" relative="1" as="geometry">
            <mxPoint x="120" y="195" as="sourcePoint" />
            <mxPoint x="200" y="180" as="targetPoint" />
            <Array as="points">
              <mxPoint x="140" y="175" />
            </Array>
          </mxGeometry>
        </mxCell>
        <mxCell id="dQjJ2E0FZgbw87xnPa_4-16" value="Server" style="whiteSpace=wrap;html=1;aspect=fixed;shadow=0;strokeWidth=5;" vertex="1" parent="1">
          <mxGeometry x="350" y="160" width="80" height="80" as="geometry" />
        </mxCell>
        <mxCell id="dQjJ2E0FZgbw87xnPa_4-17" value="" style="endArrow=classic;html=1;" edge="1" parent="1">
          <mxGeometry width="50" height="50" relative="1" as="geometry">
            <mxPoint x="300" y="240" as="sourcePoint" />
            <mxPoint x="350" y="190" as="targetPoint" />
          </mxGeometry>
        </mxCell>
        <mxCell id="dQjJ2E0FZgbw87xnPa_4-18" value="" style="endArrow=classic;startArrow=classic;html=1;" edge="1" parent="1">
          <mxGeometry width="50" height="50" relative="1" as="geometry">
            <mxPoint x="430" y="240" as="sourcePoint" />
            <mxPoint x="480" y="190" as="targetPoint" />
            <Array as="points">
              <mxPoint x="460" y="210" />
            </Array>
          </mxGeometry>
        </mxCell>
        <mxCell id="dQjJ2E0FZgbw87xnPa_4-19" value="Database" style="whiteSpace=wrap;html=1;aspect=fixed;shadow=0;strokeWidth=5;" vertex="1" parent="1">
          <mxGeometry x="480" y="160" width="80" height="80" as="geometry" />
        </mxCell>
        <mxCell id="dQjJ2E0FZgbw87xnPa_4-20" value="front-end" style="text;html=1;strokeColor=none;fillColor=none;align=center;verticalAlign=middle;whiteSpace=wrap;rounded=0;shadow=0;" vertex="1" parent="1">
          <mxGeometry x="220" y="140" width="80" height="20" as="geometry" />
        </mxCell>
        <mxCell id="dQjJ2E0FZgbw87xnPa_4-21" value="backend" style="text;html=1;strokeColor=none;fillColor=none;align=center;verticalAlign=middle;whiteSpace=wrap;rounded=0;shadow=0;" vertex="1" parent="1">
          <mxGeometry x="350" y="140" width="210" height="20" as="geometry" />
        </mxCell>
        <mxCell id="dQjJ2E0FZgbw87xnPa_4-22" value="- Python&lt;br&gt;- Flask&lt;br&gt;" style="text;html=1;align=center;verticalAlign=middle;resizable=0;points=[];autosize=1;" vertex="1" parent="1">
          <mxGeometry x="210" y="245" width="60" height="30" as="geometry" />
        </mxCell>
        <mxCell id="dQjJ2E0FZgbw87xnPa_4-23" value="Node?&amp;nbsp;&lt;br&gt;Python backend?" style="text;html=1;align=center;verticalAlign=middle;resizable=0;points=[];autosize=1;" vertex="1" parent="1">
          <mxGeometry x="335" y="255" width="110" height="30" as="geometry" />
        </mxCell>
        <mxCell id="dQjJ2E0FZgbw87xnPa_4-24" value="mySQL" style="text;html=1;align=center;verticalAlign=middle;resizable=0;points=[];autosize=1;" vertex="1" parent="1">
          <mxGeometry x="490" y="255" width="60" height="20" as="geometry" />
        </mxCell>
      </root>
    </mxGraphModel>
  </diagram>
  <diagram id="5z7Sv5H5zPsnxHpmHT8G" name="Page-2">
    <mxGraphModel dx="946" dy="553" grid="1" gridSize="10" guides="1" tooltips="1" connect="1" arrows="1" fold="1" page="1" pageScale="1" pageWidth="850" pageHeight="1100" math="0" shadow="0">
      <root>
        <mxCell id="5iGnVZayL-TMYyF1wvhR-0" />
        <mxCell id="5iGnVZayL-TMYyF1wvhR-1" parent="5iGnVZayL-TMYyF1wvhR-0" />
        <mxCell id="5iGnVZayL-TMYyF1wvhR-2" value="" style="rounded=0;whiteSpace=wrap;html=1;shadow=0;strokeWidth=1;" vertex="1" parent="5iGnVZayL-TMYyF1wvhR-1">
          <mxGeometry x="40" y="50" width="310" height="240" as="geometry" />
        </mxCell>
        <mxCell id="5iGnVZayL-TMYyF1wvhR-3" value="Login Chat History Users" style="rounded=0;whiteSpace=wrap;html=1;shadow=0;strokeWidth=1;align=left;" vertex="1" parent="5iGnVZayL-TMYyF1wvhR-1">
          <mxGeometry x="40" y="50" width="310" height="30" as="geometry" />
        </mxCell>
        <mxCell id="5iGnVZayL-TMYyF1wvhR-4" value="" style="rounded=0;whiteSpace=wrap;html=1;shadow=0;strokeWidth=1;" vertex="1" parent="5iGnVZayL-TMYyF1wvhR-1">
          <mxGeometry x="135" y="140" width="120" height="60" as="geometry" />
        </mxCell>
        <mxCell id="5iGnVZayL-TMYyF1wvhR-5" value="Username:&amp;nbsp;" style="text;html=1;strokeColor=none;fillColor=none;align=center;verticalAlign=middle;whiteSpace=wrap;rounded=0;shadow=0;" vertex="1" parent="5iGnVZayL-TMYyF1wvhR-1">
          <mxGeometry x="150" y="160" width="40" height="20" as="geometry" />
        </mxCell>
        <mxCell id="5iGnVZayL-TMYyF1wvhR-6" value="Login" style="rounded=1;whiteSpace=wrap;html=1;shadow=0;strokeWidth=1;" vertex="1" parent="5iGnVZayL-TMYyF1wvhR-1">
          <mxGeometry x="195" y="180" width="60" height="20" as="geometry" />
        </mxCell>
        <mxCell id="5iGnVZayL-TMYyF1wvhR-7" value="" style="rounded=0;whiteSpace=wrap;html=1;shadow=0;strokeWidth=1;" vertex="1" parent="5iGnVZayL-TMYyF1wvhR-1">
          <mxGeometry x="450" y="50" width="310" height="240" as="geometry" />
        </mxCell>
        <mxCell id="5iGnVZayL-TMYyF1wvhR-8" value="Login" style="text;html=1;strokeColor=none;fillColor=none;align=center;verticalAlign=middle;whiteSpace=wrap;rounded=0;shadow=0;" vertex="1" parent="5iGnVZayL-TMYyF1wvhR-1">
          <mxGeometry x="310" y="30" width="40" height="20" as="geometry" />
        </mxCell>
        <mxCell id="5iGnVZayL-TMYyF1wvhR-9" value="Login Chat History Users" style="rounded=0;whiteSpace=wrap;html=1;shadow=0;strokeWidth=1;align=left;" vertex="1" parent="5iGnVZayL-TMYyF1wvhR-1">
          <mxGeometry x="450" y="50" width="310" height="30" as="geometry" />
        </mxCell>
        <mxCell id="5iGnVZayL-TMYyF1wvhR-10" value="" style="rounded=0;whiteSpace=wrap;html=1;shadow=0;strokeWidth=1;" vertex="1" parent="5iGnVZayL-TMYyF1wvhR-1">
          <mxGeometry x="490" y="100" width="240" height="150" as="geometry" />
        </mxCell>
        <mxCell id="5iGnVZayL-TMYyF1wvhR-11" value="Active Chat" style="rounded=0;whiteSpace=wrap;html=1;shadow=0;strokeWidth=1;" vertex="1" parent="5iGnVZayL-TMYyF1wvhR-1">
          <mxGeometry x="490" y="100" width="180" height="120" as="geometry" />
        </mxCell>
        <mxCell id="5iGnVZayL-TMYyF1wvhR-12" value="User message" style="rounded=0;whiteSpace=wrap;html=1;shadow=0;strokeWidth=1;align=left;" vertex="1" parent="5iGnVZayL-TMYyF1wvhR-1">
          <mxGeometry x="490" y="220" width="180" height="30" as="geometry" />
        </mxCell>
        <mxCell id="5iGnVZayL-TMYyF1wvhR-13" value="Send" style="rounded=1;whiteSpace=wrap;html=1;shadow=0;strokeWidth=1;" vertex="1" parent="5iGnVZayL-TMYyF1wvhR-1">
          <mxGeometry x="620" y="220" width="50" height="30" as="geometry" />
        </mxCell>
        <mxCell id="5iGnVZayL-TMYyF1wvhR-14" value="UserList" style="text;html=1;strokeColor=none;fillColor=none;align=center;verticalAlign=middle;whiteSpace=wrap;rounded=0;shadow=0;" vertex="1" parent="5iGnVZayL-TMYyF1wvhR-1">
          <mxGeometry x="680" y="100" width="40" height="20" as="geometry" />
        </mxCell>
        <mxCell id="5iGnVZayL-TMYyF1wvhR-15" value="user1" style="text;html=1;strokeColor=none;fillColor=none;align=center;verticalAlign=middle;whiteSpace=wrap;rounded=0;shadow=0;" vertex="1" parent="5iGnVZayL-TMYyF1wvhR-1">
          <mxGeometry x="680" y="130" width="40" height="20" as="geometry" />
        </mxCell>
        <mxCell id="5iGnVZayL-TMYyF1wvhR-16" value="user2" style="text;html=1;strokeColor=none;fillColor=none;align=center;verticalAlign=middle;whiteSpace=wrap;rounded=0;shadow=0;" vertex="1" parent="5iGnVZayL-TMYyF1wvhR-1">
          <mxGeometry x="680" y="160" width="40" height="20" as="geometry" />
        </mxCell>
        <mxCell id="5iGnVZayL-TMYyF1wvhR-18" value="" style="rounded=0;whiteSpace=wrap;html=1;shadow=0;strokeWidth=1;" vertex="1" parent="5iGnVZayL-TMYyF1wvhR-1">
          <mxGeometry x="40" y="350" width="310" height="240" as="geometry" />
        </mxCell>
        <mxCell id="5iGnVZayL-TMYyF1wvhR-19" value="Chat" style="text;html=1;strokeColor=none;fillColor=none;align=center;verticalAlign=middle;whiteSpace=wrap;rounded=0;shadow=0;" vertex="1" parent="5iGnVZayL-TMYyF1wvhR-1">
          <mxGeometry x="720" y="30" width="40" height="20" as="geometry" />
        </mxCell>
        <mxCell id="5iGnVZayL-TMYyF1wvhR-21" value="Login Chat History Users" style="rounded=0;whiteSpace=wrap;html=1;shadow=0;strokeWidth=1;align=left;" vertex="1" parent="5iGnVZayL-TMYyF1wvhR-1">
          <mxGeometry x="40" y="350" width="310" height="30" as="geometry" />
        </mxCell>
        <mxCell id="5iGnVZayL-TMYyF1wvhR-22" value="" style="rounded=0;whiteSpace=wrap;html=1;shadow=0;strokeWidth=1;" vertex="1" parent="5iGnVZayL-TMYyF1wvhR-1">
          <mxGeometry x="80" y="400" width="230" height="160" as="geometry" />
        </mxCell>
        <mxCell id="5iGnVZayL-TMYyF1wvhR-23" value="Show All Sent Messages" style="text;html=1;strokeColor=none;fillColor=none;align=center;verticalAlign=middle;whiteSpace=wrap;rounded=0;shadow=0;" vertex="1" parent="5iGnVZayL-TMYyF1wvhR-1">
          <mxGeometry x="140" y="410" width="110" height="20" as="geometry" />
        </mxCell>
        <mxCell id="5iGnVZayL-TMYyF1wvhR-24" value="" style="rounded=0;whiteSpace=wrap;html=1;shadow=0;strokeWidth=1;" vertex="1" parent="5iGnVZayL-TMYyF1wvhR-1">
          <mxGeometry x="135" y="440" width="120" height="110" as="geometry" />
        </mxCell>
        <mxCell id="5iGnVZayL-TMYyF1wvhR-25" value="" style="rounded=0;whiteSpace=wrap;html=1;shadow=0;strokeWidth=1;" vertex="1" parent="5iGnVZayL-TMYyF1wvhR-1">
          <mxGeometry x="450" y="350" width="310" height="240" as="geometry" />
        </mxCell>
        <mxCell id="5iGnVZayL-TMYyF1wvhR-26" value="Login Chat History Users" style="rounded=0;whiteSpace=wrap;html=1;shadow=0;strokeWidth=1;align=left;" vertex="1" parent="5iGnVZayL-TMYyF1wvhR-1">
          <mxGeometry x="450" y="350" width="310" height="30" as="geometry" />
        </mxCell>
        <mxCell id="5iGnVZayL-TMYyF1wvhR-27" value="&lt;span style=&quot;color: rgba(0 , 0 , 0 , 0) ; font-family: monospace ; font-size: 0px&quot;&gt;%3CmxGraphModel%3E%3Croot%3E%3CmxCell%20id%3D%220%22%2F%3E%3CmxCell%20id%3D%221%22%20parent%3D%220%22%2F%3E%3CmxCell%20id%3D%222%22%20value%3D%22Users%22%20style%3D%22text%3Bhtml%3D1%3BstrokeColor%3Dnone%3BfillColor%3Dnone%3Balign%3Dcenter%3BverticalAlign%3Dmiddle%3BwhiteSpace%3Dwrap%3Brounded%3D0%3Bshadow%3D0%3B%22%20vertex%3D%221%22%20parent%3D%221%22%3E%3CmxGeometry%20x%3D%22490%22%20y%3D%22400%22%20width%3D%2240%22%20height%3D%2220%22%20as%3D%22geometry%22%2F%3E%3C%2FmxCell%3E%3C%2Froot%3E%3C%2FmxGraphModel%3E&lt;/span&gt;" style="rounded=0;whiteSpace=wrap;html=1;shadow=0;strokeWidth=1;" vertex="1" parent="5iGnVZayL-TMYyF1wvhR-1">
          <mxGeometry x="490" y="400" width="210" height="140" as="geometry" />
        </mxCell>
        <mxCell id="5iGnVZayL-TMYyF1wvhR-28" value="Users" style="text;html=1;strokeColor=none;fillColor=none;align=center;verticalAlign=middle;whiteSpace=wrap;rounded=0;shadow=0;" vertex="1" parent="5iGnVZayL-TMYyF1wvhR-1">
          <mxGeometry x="490" y="400" width="40" height="20" as="geometry" />
        </mxCell>
        <mxCell id="5iGnVZayL-TMYyF1wvhR-29" value="user1" style="text;html=1;strokeColor=none;fillColor=none;align=center;verticalAlign=middle;whiteSpace=wrap;rounded=0;shadow=0;" vertex="1" parent="5iGnVZayL-TMYyF1wvhR-1">
          <mxGeometry x="510" y="430" width="40" height="20" as="geometry" />
        </mxCell>
        <mxCell id="5iGnVZayL-TMYyF1wvhR-30" value="Status" style="text;html=1;strokeColor=none;fillColor=none;align=center;verticalAlign=middle;whiteSpace=wrap;rounded=0;shadow=0;" vertex="1" parent="5iGnVZayL-TMYyF1wvhR-1">
          <mxGeometry x="585" y="400" width="40" height="20" as="geometry" />
        </mxCell>
        <mxCell id="5iGnVZayL-TMYyF1wvhR-31" value="user2" style="text;html=1;strokeColor=none;fillColor=none;align=center;verticalAlign=middle;whiteSpace=wrap;rounded=0;shadow=0;" vertex="1" parent="5iGnVZayL-TMYyF1wvhR-1">
          <mxGeometry x="510" y="460" width="40" height="20" as="geometry" />
        </mxCell>
        <mxCell id="5iGnVZayL-TMYyF1wvhR-33" value="online" style="text;html=1;strokeColor=none;fillColor=none;align=center;verticalAlign=middle;whiteSpace=wrap;rounded=0;shadow=0;" vertex="1" parent="5iGnVZayL-TMYyF1wvhR-1">
          <mxGeometry x="580" y="430" width="40" height="20" as="geometry" />
        </mxCell>
        <mxCell id="5iGnVZayL-TMYyF1wvhR-34" value="offline" style="text;html=1;strokeColor=none;fillColor=none;align=center;verticalAlign=middle;whiteSpace=wrap;rounded=0;shadow=0;" vertex="1" parent="5iGnVZayL-TMYyF1wvhR-1">
          <mxGeometry x="580" y="460" width="40" height="20" as="geometry" />
        </mxCell>
        <mxCell id="5iGnVZayL-TMYyF1wvhR-35" value="History" style="text;html=1;strokeColor=none;fillColor=none;align=center;verticalAlign=middle;whiteSpace=wrap;rounded=0;shadow=0;" vertex="1" parent="5iGnVZayL-TMYyF1wvhR-1">
          <mxGeometry x="310" y="330" width="40" height="20" as="geometry" />
        </mxCell>
        <mxCell id="5iGnVZayL-TMYyF1wvhR-36" value="Users" style="text;html=1;strokeColor=none;fillColor=none;align=center;verticalAlign=middle;whiteSpace=wrap;rounded=0;shadow=0;" vertex="1" parent="5iGnVZayL-TMYyF1wvhR-1">
          <mxGeometry x="720" y="330" width="40" height="20" as="geometry" />
        </mxCell>
      </root>
    </mxGraphModel>
  </diagram>
</mxfile>
